# xmcd CD database file generated by Grip 3.0.5
# 
# Track frame offsets:
#       183
#       16653
#       44128
# 
# Disc length: 824 seconds
# 
# Revision: 1
# Processed by: cddbd v1.4PL0 Copyright (c) Steve Scherf et al.
# Submitted via: Grip 3.0.5
# 
DISCID=1d033603
DTITLE=Bästard ~ Tiersen - La Mancha (EP)
DYEAR=1998
DGENRE=Alternative
TTITLE0=La Mancha
TTITLE1=Twins
TTITLE2=Marvelous Marvin Agler
EXTD=
EXTT0=
EXTT1=
EXTT2=
PLAYORDER=
